<svg width="27" height="27" viewBox="0 0 27 27" fill="none" xmlns="http://www.w3.org/2000/svg">
<path d="M12.314 0L25.1644 1.83679L27 14.6879L15.0674 26.6199C14.8239 26.8633 14.4938 27 14.1496 27C13.8053 27 13.4752 26.8633 13.2318 26.6199L0.380085 13.7688C0.136719 13.5255 0 13.1953 0 12.8511C0 12.5068 0.136719 12.1767 0.380085 11.9333L12.314 0ZM13.2318 2.75454L3.13346 12.8511L14.1496 23.8654L24.2466 13.7688L22.8706 4.13052L13.2318 2.75454ZM15.9839 11.0156C15.4968 10.5285 15.2233 9.86778 15.2234 9.17897C15.2234 8.83793 15.2907 8.5002 15.4213 8.18513C15.5519 7.87002 15.7432 7.58378 15.9846 7.34265C16.2257 7.10152 16.5121 6.91025 16.8272 6.77978C17.1424 6.64935 17.4802 6.5822 17.8212 6.58228C18.51 6.5824 19.1706 6.85613 19.6577 7.34329C20.1446 7.83044 20.4181 8.49106 20.418 9.17988C20.4179 9.8687 20.1441 10.5292 19.657 11.0162C19.1698 11.5032 18.5091 11.7767 17.8203 11.7766C17.1315 11.7765 16.4708 11.5027 15.9839 11.0156Z" fill="#0C8CE9"/>
</svg>
