<svg width="33" height="33" viewBox="0 0 33 33" fill="none" xmlns="http://www.w3.org/2000/svg">
<g clip-path="url(#clip0_93_10951)">
<g clip-path="url(#clip1_93_10951)">
<path d="M11.8614 23.8681C11.6992 25.0148 11.1321 26.0639 10.2641 26.823C9.39612 27.5821 8.28552 28 7.13638 28C5.98719 28 4.87663 27.5821 4.00862 26.823C3.14062 26.0639 2.57348 25.0148 2.41137 23.8681H1V7.37445C1 7.00994 1.14367 6.66033 1.3994 6.40257C1.65513 6.14482 2.00198 6 2.36364 6H21.4546C21.8162 6 22.1631 6.14482 22.4188 6.40257C22.6745 6.66033 22.8182 7.00994 22.8182 7.37445V10.1234H26.9091L31 15.6982V23.8681H28.225C28.0629 25.0148 27.4957 26.0639 26.6278 26.823C25.7597 27.5821 24.6491 28 23.5 28C22.3509 28 21.2402 27.5821 20.3722 26.823C19.5043 26.0639 18.9371 25.0148 18.775 23.8681H11.8614ZM20.0909 8.74895H3.72728V19.8134C4.26531 19.2597 4.92811 18.8452 5.65921 18.6054C6.39031 18.3654 7.16811 18.3071 7.92639 18.4353C8.68473 18.5635 9.40105 18.8745 10.0145 19.3418C10.6279 19.809 11.1202 20.4188 11.4496 21.1191H19.1868C19.4159 20.634 19.7228 20.1927 20.0909 19.8134V8.74895ZM22.8182 16.9957H28.2728V16.604L25.5345 12.8723H22.8182V16.9957ZM23.5 25.2425C24.0426 25.2425 24.5631 25.0252 24.9468 24.6385C25.3305 24.2517 25.5461 23.7271 25.5461 23.1802C25.5461 22.6331 25.3305 22.1086 24.9468 21.7218C24.5631 21.3351 24.0426 21.1178 23.5 21.1178C22.9573 21.1178 22.4369 21.3351 22.0532 21.7218C21.6695 22.1086 21.4539 22.6331 21.4539 23.1802C21.4539 23.7271 21.6695 24.2517 22.0532 24.6385C22.4369 25.0252 22.9573 25.2425 23.5 25.2425ZM9.18184 23.1808C9.18184 22.9101 9.1289 22.6419 9.02613 22.3917C8.92331 22.1417 8.77268 21.9144 8.58273 21.723C8.39278 21.5315 8.16729 21.3796 7.9191 21.276C7.67096 21.1725 7.405 21.1191 7.13638 21.1191C6.86776 21.1191 6.60175 21.1725 6.3536 21.276C6.10541 21.3796 5.87992 21.5315 5.69002 21.723C5.50008 21.9144 5.3494 22.1417 5.24662 22.3917C5.1438 22.6419 5.09092 22.9101 5.09092 23.1808C5.09092 23.7276 5.30641 24.252 5.69002 24.6386C6.07359 25.0252 6.59387 25.2425 7.13638 25.2425C7.67883 25.2425 8.19912 25.0252 8.58273 24.6386C8.96629 24.252 9.18184 23.7276 9.18184 23.1808Z" fill="#0C8CE9"/>
</g>
</g>
<defs>
<clipPath id="clip0_93_10951">
<rect width="33" height="33" fill="white"/>
</clipPath>
<clipPath id="clip1_93_10951">
<rect width="33" height="33" fill="white"/>
</clipPath>
</defs>
</svg>
