<svg width="26" height="26" viewBox="0 0 26 26" fill="none" xmlns="http://www.w3.org/2000/svg">
<path d="M22.2857 23.9272V26H19.8095V24.3425L10.6253 25.8794C10.5367 25.8942 10.4459 25.8895 10.3593 25.8655C10.2726 25.8415 10.1922 25.7988 10.1237 25.7405C10.0551 25.6822 10 25.6096 9.96218 25.5276C9.92441 25.4458 9.90478 25.3567 9.90474 25.2664V23.5131H4.95238V26H2.47619V23.5131H1.23809C0.909728 23.5131 0.594819 23.3822 0.362631 23.1489C0.130442 22.9158 0 22.5994 0 22.2697V3.61811C0 3.28835 0.130442 2.97207 0.362631 2.73887C0.594819 2.50569 0.909728 2.37468 1.23809 2.37468H9.90474V0.621431C9.90478 0.531181 9.92441 0.44203 9.96218 0.36016C10 0.278282 10.0551 0.205652 10.1237 0.14732C10.1922 0.0889922 10.2726 0.0463494 10.3593 0.0223609C10.4459 -0.00162369 10.5367 -0.00638272 10.6253 0.00841753L23.7269 2.20184C24.0159 2.25011 24.2786 2.39981 24.4681 2.62431C24.6576 2.84881 24.7618 3.13355 24.7619 3.42786V6.10498H26V8.59186H24.7619V17.2959H26V19.7828H24.7619V22.4599C24.7618 22.7543 24.6576 23.039 24.4681 23.2636C24.2786 23.488 24.0159 23.6377 23.7269 23.686L22.2857 23.9272ZM2.47619 4.86154V21.0262H9.90474V4.86154H2.47619ZM12.381 23.0655L22.2857 21.4068V4.48106L12.381 2.82356V23.0655Z" fill="#0C8CE9"/>
</svg>
