<svg width="24" height="24" viewBox="0 0 24 24" fill="none" xmlns="http://www.w3.org/2000/svg">
<path d="M14.5 16C13.6888 16 13.0677 15.6951 12.6369 15.0852C12.2123 14.4755 12 13.6056 12 12.4758C12 11.3461 12.2123 10.4859 12.6369 9.89542C13.0677 9.29839 13.6888 9 14.5 9C15.3112 9 15.929 9.29839 16.3536 9.89542C16.7846 10.4859 17 11.3461 17 12.4758C17 13.6056 16.7846 14.4755 16.3536 15.0852C15.929 15.6951 15.3112 16 14.5 16ZM14.5 14.7868C14.8675 14.7868 15.14 14.6038 15.3175 14.238C15.4949 13.8656 15.5836 13.2783 15.5836 12.4758C15.5836 11.6735 15.4949 11.0958 15.3175 10.7428C15.14 10.3896 14.8675 10.2132 14.5 10.2132C14.1324 10.2132 13.8599 10.3896 13.6825 10.7428C13.5051 11.0958 13.4164 11.6735 13.4164 12.4758C13.4164 13.2783 13.5051 13.8656 13.6825 14.238C13.8599 14.6038 14.1324 14.7868 14.5 14.7868Z" fill="white"/>
<path d="M7.22785 16V14.739H8.8634V10.7177L7.61076 11.4227L7 10.3007L9.32925 9H10.468V14.739H12V16H7.22785Z" fill="white"/>
<path d="M4.0476 3.01201C6.23964 1.06729 9.06959 -0.0045455 12 1.44902e-05C18.6276 1.44902e-05 24 5.37241 24 12C24.0039 14.4527 23.2526 16.8472 21.8484 18.858L18.6 12H21.6C21.6 10.0913 21.0311 8.22576 19.9657 6.64201C18.9005 5.05813 17.3871 3.82789 15.6192 3.10825C13.8514 2.38861 11.909 2.21233 10.0404 2.60197C8.17188 2.99161 6.46176 3.92941 5.1288 5.29561L4.0488 3.01321L4.0476 3.01201ZM19.9524 20.988C17.7603 22.9327 14.9304 24.0047 12 24C5.3724 24 0 18.6276 0 12C0 9.45 0.795601 7.086 2.1516 5.14201L5.4 12H2.4C2.4 13.9088 2.96892 15.7742 4.03428 17.3581C5.09952 18.9419 6.61284 20.1722 8.3808 20.8919C10.1488 21.6114 12.091 21.7877 13.9596 21.398C15.8282 21.0084 17.5382 20.0706 18.8712 18.7044L19.9512 20.9868L19.9524 20.988Z" fill="white"/>
</svg>
