<svg width="12" height="14" viewBox="0 0 12 14" fill="none" xmlns="http://www.w3.org/2000/svg">
<path d="M12 0.6944V13.3056C11.9986 13.4895 11.9284 13.6653 11.8045 13.7952C11.6807 13.9252 11.5131 13.9987 11.338 14H0.662C0.486533 14 0.318267 13.9269 0.194134 13.7966C0.0700004 13.6664 0.000133333 13.4898 0 13.3056V0.6944C0.0014 0.51058 0.071601 0.33474 0.195468 0.20482C0.319334 0.0748304 0.486933 0.00133 0.662 0H11.338C11.7033 0 12 0.3108 12 0.6944ZM10.6667 1.4H1.33333V12.6H10.6667V1.4ZM5.52867 7.7847L8.35733 4.8153L9.3 5.8051L5.52867 9.765L2.93533 7.042L3.87867 6.0522L5.52867 7.7847Z" fill="white"/>
</svg>
