<svg width="27" height="27" viewBox="0 0 27 27" fill="none" xmlns="http://www.w3.org/2000/svg">
<g clip-path="url(#clip0_93_10931)">
<g clip-path="url(#clip1_93_10931)">
<path d="M17.3333 3.6H4.55556V24.4H22.4444V8.80001H17.3333V3.6ZM2 2.2896C2 1.5772 2.57117 1 3.2765 1H18.6111L25 7.50001V25.6909C25.0011 25.8616 24.9693 26.0308 24.9062 26.1891C24.8431 26.3472 24.7499 26.4913 24.6321 26.6129C24.5143 26.7344 24.374 26.8311 24.2195 26.8975C24.0649 26.964 23.8989 26.9988 23.7311 27H3.26884C2.93326 26.9977 2.61208 26.861 2.37467 26.6197C2.13726 26.3784 2.00268 26.0518 2 25.7104V2.2896ZM12.2222 12.7V8.80001H14.7777V12.7H18.6111V15.3H14.7777V19.2H12.2222V15.3H8.38889V12.7H12.2222Z" fill="#0C8CE9"/>
</g>
</g>
<defs>
<clipPath id="clip0_93_10931">
<rect width="27" height="27" fill="white"/>
</clipPath>
<clipPath id="clip1_93_10931">
<rect width="27" height="27" fill="white"/>
</clipPath>
</defs>
</svg>
