<svg width="41" height="41" viewBox="0 0 41 41" fill="none" xmlns="http://www.w3.org/2000/svg">
<path fill-rule="evenodd" clip-rule="evenodd" d="M5.28089 15.9304C9.46486 25.0461 16.9098 32.293 26.1648 36.2199L26.1942 36.2324L27.9819 37.0298C30.2589 38.0447 32.9348 37.3238 34.3946 35.3025L37.3777 31.1713C37.5599 30.9191 37.513 30.5683 37.2707 30.3728L32.0631 26.1691C31.8041 25.96 31.4235 26.0087 31.2255 26.2761L29.1986 29.0126C28.7063 29.6771 27.8175 29.9082 27.0641 29.567C20.1439 26.4334 14.5826 20.8691 11.4508 13.9446C11.1099 13.191 11.3408 12.3015 12.0049 11.809L14.74 9.78102C15.0071 9.58271 15.0558 9.20187 14.847 8.94278L10.6451 3.73144C10.4497 3.48924 10.0991 3.44207 9.84701 3.62416L5.69615 6.62263C3.66238 8.09159 2.9463 10.7919 3.98424 13.0765L5.27957 15.9274L5.28089 15.9304ZM24.7793 39.4483C14.7229 35.177 6.63455 27.3002 2.08859 17.3933L2.08574 17.3873L0.787776 14.5306C-0.942334 10.7228 0.251488 6.22248 3.64089 3.774L7.79175 0.775742C9.55716 -0.499507 12.0108 -0.169997 13.3778 1.52536L17.5798 6.73692C19.0417 8.55009 18.7012 11.2164 16.8306 12.6036L15.2634 13.7658C17.9106 18.9054 22.1062 23.1035 27.2431 25.7525L28.4044 24.1841C29.7908 22.3124 32.4555 21.9717 34.2679 23.4345L39.4755 27.6382C41.1705 29.0065 41.4992 31.4627 40.2238 33.2289L37.2407 37.36C34.8079 40.7292 30.3477 41.9306 26.5531 40.2389L24.7793 39.4483Z" fill="#0C8CE9"/>
</svg>
