<svg width="44" height="44" viewBox="0 0 44 44" fill="none" xmlns="http://www.w3.org/2000/svg">
<path d="M21.9569 10.7818C15.7437 10.7818 10.6527 15.8728 10.6527 22.0857C10.6527 28.2985 15.7437 33.3901 21.9569 33.3901C28.1701 33.3901 33.2611 28.299 33.2611 22.0857C33.2611 15.8728 28.1697 10.7818 21.9569 10.7818ZM22.8198 25.0194L20.7801 27.0596C20.6344 27.205 20.437 27.2867 20.2312 27.2867C20.0254 27.2867 19.828 27.205 19.6824 27.0596L15.6891 23.0662C15.5436 22.9206 15.462 22.7232 15.462 22.5174C15.462 22.3115 15.5436 22.1141 15.6891 21.9685L17.1795 20.4776C17.3252 20.332 17.5226 20.2502 17.7286 20.2502C17.9345 20.2502 18.132 20.332 18.2776 20.4776L20.2312 22.4312L25.6358 17.1039C25.7817 16.9601 25.9786 16.8798 26.1835 16.8805C26.3884 16.8812 26.5847 16.9628 26.7297 17.1076L28.2201 18.5985C28.2926 18.671 28.35 18.757 28.3891 18.8518C28.4281 18.9465 28.4481 19.048 28.4477 19.1505C28.4474 19.2529 28.4268 19.3543 28.3871 19.4488C28.3474 19.5432 28.2894 19.6289 28.2164 19.7009L22.8198 25.0194ZM21.9569 10.7818C15.7437 10.7818 10.6527 15.8728 10.6527 22.0857C10.6527 28.2985 15.7437 33.3901 21.9569 33.3901C28.1701 33.3901 33.2611 28.299 33.2611 22.0857C33.2611 15.8728 28.1697 10.7818 21.9569 10.7818ZM22.8198 25.0194L20.7801 27.0596C20.6344 27.205 20.437 27.2867 20.2312 27.2867C20.0254 27.2867 19.828 27.205 19.6824 27.0596L15.6891 23.0662C15.5436 22.9206 15.462 22.7232 15.462 22.5174C15.462 22.3115 15.5436 22.1141 15.6891 21.9685L17.1795 20.4776C17.3252 20.332 17.5226 20.2502 17.7286 20.2502C17.9345 20.2502 18.132 20.332 18.2776 20.4776L20.2312 22.4312L25.6358 17.1039C25.7817 16.9601 25.9786 16.8798 26.1835 16.8805C26.3884 16.8812 26.5847 16.9628 26.7297 17.1076L28.2201 18.5985C28.2926 18.671 28.35 18.757 28.3891 18.8518C28.4281 18.9465 28.4481 19.048 28.4477 19.1505C28.4474 19.2529 28.4268 19.3543 28.3871 19.4488C28.3474 19.5432 28.2894 19.6289 28.2164 19.7009L22.8198 25.0194ZM21.9569 10.7818C15.7437 10.7818 10.6527 15.8728 10.6527 22.0857C10.6527 28.2985 15.7437 33.3901 21.9569 33.3901C28.1701 33.3901 33.2611 28.299 33.2611 22.0857C33.2611 15.8728 28.1697 10.7818 21.9569 10.7818ZM22.8198 25.0194L20.7801 27.0596C20.6344 27.205 20.437 27.2867 20.2312 27.2867C20.0254 27.2867 19.828 27.205 19.6824 27.0596L15.6891 23.0662C15.5436 22.9206 15.462 22.7232 15.462 22.5174C15.462 22.3115 15.5436 22.1141 15.6891 21.9685L17.1795 20.4776C17.3252 20.332 17.5226 20.2502 17.7286 20.2502C17.9345 20.2502 18.132 20.332 18.2776 20.4776L20.2312 22.4312L25.6358 17.1039C25.7817 16.9601 25.9786 16.8798 26.1835 16.8805C26.3884 16.8812 26.5847 16.9628 26.7297 17.1076L28.2201 18.5985C28.2926 18.671 28.35 18.757 28.3891 18.8518C28.4281 18.9465 28.4481 19.048 28.4477 19.1505C28.4474 19.2529 28.4268 19.3543 28.3871 19.4488C28.3474 19.5432 28.2894 19.6289 28.2164 19.7009L22.8198 25.0194ZM42.149 25.8827C41.5446 24.8471 41.7174 23.4664 42.4941 22.5174L43.2708 21.6545C44.3925 20.3599 44.2202 18.3753 42.753 17.3397L41.8035 16.7357C40.7684 16.0456 40.3367 14.7511 40.6817 13.5431L41.0273 12.4209C41.5446 10.7813 40.4228 9.05556 38.6976 8.79665L37.5754 8.62436C36.3675 8.4516 35.418 7.50258 35.1591 6.29465L34.9868 5.17241C34.7274 3.44668 33.0022 2.41105 31.276 2.92886L30.1543 3.27438C28.9464 3.61943 27.6519 3.18777 26.9618 2.15214L26.2717 1.20358C25.2361 -0.176637 23.2514 -0.436008 21.9569 0.771918L21.0941 1.54864C20.1446 2.41151 18.8506 2.58427 17.7288 1.98031L16.6932 1.46249C15.1398 0.599621 13.2413 1.28973 12.6374 2.92932L12.2062 3.96495C11.7745 5.08673 10.5666 5.86345 9.35823 5.7773L8.40923 5.60454C6.68353 5.5184 5.21672 6.98477 5.38947 8.71097L5.47516 9.83275C5.56177 11.0411 4.87121 12.2491 3.6633 12.6803L2.62769 13.1119C0.98813 13.802 0.384178 15.701 1.2475 17.1678L1.85098 18.1169C2.4554 19.1525 2.28264 20.5332 1.50594 21.4822L0.729227 22.3451C-0.39253 23.6396 -0.220237 25.6242 1.24703 26.6599L2.1965 27.2638C3.23164 27.9539 3.6633 29.2485 3.31825 30.4564L2.97274 31.5786C2.4554 33.2182 3.57716 34.944 5.3024 35.2029L6.42462 35.3752C7.63253 35.5479 8.58199 36.497 8.84089 37.7049L9.01318 38.8271C9.27255 40.5529 10.9978 41.5885 12.724 41.0707L13.8457 40.7252C15.0536 40.3801 16.3481 40.8118 17.0382 41.8474L17.7283 42.7964C18.764 44.1766 20.7486 44.436 22.0431 43.2281L22.9059 42.4514C23.8554 41.5885 25.1494 41.4157 26.2712 42.0197L27.3068 42.5375C28.8602 43.4004 30.7587 42.7103 31.3626 41.0707L31.7938 40.035C32.2255 38.9133 33.4334 38.1365 34.6418 38.2227L35.7635 38.3093C37.4892 38.3955 38.956 36.9286 38.7833 35.2029L38.6971 34.0811C38.611 32.8727 39.3011 31.6648 40.5095 31.2331L41.5446 30.8019C43.1842 30.1118 43.7886 28.2128 42.9253 26.746L42.149 25.8827ZM21.9569 36.5831C13.9319 36.5831 7.37362 30.0247 7.37362 21.9995C7.37362 13.9743 13.9319 7.41597 21.9569 7.41597C29.982 7.41597 36.5398 13.9743 36.5398 21.9995C36.5398 30.1109 29.9815 36.5831 21.9569 36.5831Z" fill="#0C8CE9"/>
</svg>
