<svg width="15" height="11" viewBox="0 0 15 11" fill="none" xmlns="http://www.w3.org/2000/svg">
<path fill-rule="evenodd" clip-rule="evenodd" d="M2.33231 0.94156C1.37046 0.94156 0.59073 1.72129 0.59073 2.68314V8.92443C0.59073 9.88629 1.37046 10.666 2.33231 10.666H12.3183C13.2802 10.666 14.06 9.88629 14.06 8.92443V2.68314C14.06 1.72129 13.2802 0.94156 12.3183 0.94156H2.33231ZM0.459961 2.68314C0.459961 1.64907 1.29824 0.810791 2.33231 0.810791H12.3183C13.3524 0.810791 14.1907 1.64907 14.1907 2.68314V8.92443C14.1907 9.95851 13.3525 10.7968 12.3183 10.7968H2.33231C1.29824 10.7968 0.459961 9.95851 0.459961 8.92443V2.68314ZM2.34367 1.92828H12.3072L12.0062 2.16225L7.78879 5.44246C7.51619 5.6545 7.1345 5.6545 6.8619 5.44246L2.64446 2.16225L2.34367 1.92828ZM2.72478 2.05905L6.94219 5.33924C7.16756 5.51454 7.48313 5.51454 7.7085 5.33924L11.9259 2.05905H2.72478ZM1.57745 2.58237L1.7885 2.74647L6.25611 6.22134C6.88503 6.71049 7.76566 6.71049 8.39458 6.22134L12.8622 2.74654L13.0732 2.58243V8.92443C13.0732 9.34135 12.7352 9.6793 12.3183 9.6793H2.33231C1.9154 9.6793 1.57745 9.34134 1.57745 8.92443V2.58237ZM1.70822 2.84974V8.92443C1.70822 9.26912 1.98763 9.54853 2.33231 9.54853H12.3183C12.663 9.54853 12.9425 9.26911 12.9425 8.92443L12.9425 2.84977L8.47487 6.32457C7.79872 6.85045 6.85197 6.85045 6.17582 6.32457L1.70822 2.84974Z" fill="#0C8CE9"/>
<path d="M1.74841 2.79814L1.64288 2.71608V2.84979V8.92448C1.64288 9.30528 1.95156 9.61396 2.33236 9.61396H12.3184C12.6992 9.61396 13.0079 9.30528 13.0079 8.92448V2.84979V2.71614L12.9024 2.7982L8.43477 6.273C7.78223 6.78052 6.86855 6.78052 6.21601 6.273L1.74841 2.79814ZM11.9661 2.11068L12.1166 1.99371H11.926H2.7248H2.53427L2.68465 2.11068L6.90209 5.3909C7.15108 5.58457 7.49971 5.58457 7.74869 5.3909L11.9661 2.11068ZM0.525391 2.68319C0.525391 1.68522 1.33439 0.876221 2.33236 0.876221H12.3184C13.3163 0.876221 14.1254 1.68522 14.1254 2.68319V8.92448C14.1254 9.92244 13.3164 10.7314 12.3184 10.7314H2.33236C1.33439 10.7314 0.525391 9.92244 0.525391 8.92448V2.68319Z" fill="#0C8CE9"/>
</svg>
