<svg width="13" height="13" viewBox="0 0 13 13" fill="none" xmlns="http://www.w3.org/2000/svg">
<path fill-rule="evenodd" clip-rule="evenodd" d="M1.57241 4.80913C2.82015 7.52599 5.04035 9.68591 7.80036 10.8563L7.80913 10.86L8.34227 11.0977C9.02129 11.4002 9.81931 11.1853 10.2546 10.5829L11.1443 9.3516C11.1986 9.2764 11.1846 9.17186 11.1124 9.1136L9.55934 7.8607C9.48212 7.79838 9.36861 7.8129 9.30957 7.89261L8.70509 8.70821C8.5583 8.90626 8.29323 8.97511 8.06857 8.87344C6.00484 7.93949 4.34636 6.28107 3.4124 4.21727C3.31073 3.99267 3.37958 3.72754 3.57763 3.58075L4.3933 2.97634C4.47294 2.91723 4.48746 2.80372 4.42521 2.7265L3.17211 1.17329C3.11386 1.10111 3.00931 1.08705 2.93411 1.14132L1.69625 2.03499C1.08974 2.47281 0.876199 3.27763 1.18573 3.95854L1.57202 4.80822L1.57241 4.80913ZM7.3872 11.8185C4.3882 10.5455 1.9761 8.19782 0.620414 5.24512L0.619564 5.24335L0.232488 4.39191C-0.283462 3.25703 0.072557 1.91573 1.08334 1.18598L2.3212 0.292363C2.84768 -0.0877179 3.5794 0.0104907 3.98707 0.515783L5.24016 2.06906C5.67615 2.60946 5.57461 3.40415 5.01674 3.81757L4.54938 4.16398C5.33883 5.69581 6.59003 6.94701 8.12193 7.73653L8.46827 7.2691C8.8817 6.71124 9.67638 6.60969 10.2168 7.04568L11.7699 8.29858C12.2754 8.70638 12.3734 9.43843 11.993 9.96484L11.1034 11.1961C10.3779 12.2003 9.04777 12.5583 7.91616 12.0541L7.3872 11.8185Z" fill="#0C8CE9"/>
</svg>
