<svg width="15" height="14" viewBox="0 0 15 14" fill="none" xmlns="http://www.w3.org/2000/svg">
<path fill-rule="evenodd" clip-rule="evenodd" d="M3.21451 8.48443C3.24511 8.4947 3.27597 8.50202 3.30683 8.50653C3.34044 8.58552 3.38392 8.68778 3.4346 8.80737C3.5583 9.09918 3.72503 9.49378 3.89713 9.9055C4.24805 10.7452 4.60204 11.6107 4.68017 11.8584C4.77694 12.1647 4.87927 12.3729 4.99095 12.515C5.04868 12.5885 5.11544 12.6527 5.19364 12.7013C5.23293 12.7258 5.27452 12.7459 5.31787 12.7608C5.31977 12.7614 5.32173 12.7621 5.32362 12.7627C5.54717 12.8472 5.75104 12.812 5.87867 12.769C5.947 12.746 6.00225 12.7182 6.04141 12.6957C6.06136 12.6842 6.07823 12.6735 6.0917 12.6645L6.0949 12.6623L8.06958 11.4309L10.3505 13.1796C10.3842 13.2054 10.4209 13.227 10.4598 13.244C10.7338 13.3636 10.9991 13.4053 11.2488 13.3712C11.498 13.3372 11.6958 13.2325 11.8431 13.1146C11.9873 12.9992 12.085 12.87 12.1459 12.774C12.177 12.725 12.2004 12.6816 12.2169 12.6483C12.2251 12.6316 12.2318 12.6173 12.2369 12.6057L12.2435 12.5905L12.246 12.5845L12.247 12.582L12.2475 12.5808L12.2479 12.5797C12.2599 12.5497 12.2691 12.5187 12.2754 12.487L14.3577 1.9886C14.3644 1.95506 14.3677 1.92086 14.3677 1.88667C14.3677 1.57923 14.2519 1.28689 13.9795 1.10951C13.7467 0.957879 13.4873 0.951342 13.3234 0.963765C13.1466 0.977169 12.9834 1.02085 12.8738 1.0557C12.8168 1.07387 12.769 1.0914 12.7344 1.10473C12.7171 1.11147 12.7029 1.11722 12.6923 1.1216L12.6844 1.12494L1.00641 5.70605L1.0049 5.70663C0.997449 5.70932 0.987903 5.71291 0.976526 5.71729C0.953903 5.72612 0.92363 5.73854 0.888257 5.75456C0.81921 5.78581 0.722376 5.83472 0.623057 5.90279C0.464303 6.01146 0.0991952 6.30922 0.160722 6.80058C0.209761 7.19263 0.478295 7.43338 0.641953 7.54917C0.731791 7.61273 0.817118 7.65817 0.879299 7.68779C0.908134 7.70152 0.968026 7.72584 0.993984 7.73643L1.00059 7.73905L3.21451 8.48443ZM13.0931 2.09001L13.0915 2.09073C13.0857 2.09322 13.0798 2.09564 13.0739 2.09799L1.38171 6.68466C1.37563 6.68708 1.36949 6.68936 1.36328 6.69152L1.35674 6.69394C1.34928 6.69688 1.33666 6.70198 1.32091 6.70918C1.31195 6.71323 1.30253 6.71768 1.29305 6.72238C1.30613 6.72977 1.31868 6.73618 1.3298 6.74148C1.34052 6.74658 1.3487 6.75004 1.35314 6.75187L3.54889 7.49111C3.5891 7.50465 3.62656 7.52256 3.66096 7.5442L10.9113 3.29989L10.9181 3.2959C10.9234 3.29276 10.9303 3.28878 10.9386 3.28407C10.9551 3.27472 10.9778 3.2623 11.0048 3.24857C11.0551 3.223 11.1356 3.18494 11.2263 3.15689C11.2894 3.13741 11.4756 3.08242 11.6769 3.14702C11.8011 3.18684 11.9298 3.27249 12.0135 3.41765C12.055 3.4897 12.0771 3.56215 12.0879 3.62845C12.1164 3.73293 12.1119 3.83604 12.0896 3.9251C12.0415 4.11687 11.9067 4.26647 11.7841 4.3809C11.6791 4.47904 10.3199 5.78974 8.97888 7.08357C8.3102 7.72878 7.64831 8.36759 7.15361 8.84516L6.82871 9.15888L10.9315 12.3043C11.0256 12.338 11.0812 12.3363 11.1069 12.3328C11.1376 12.3286 11.1627 12.3168 11.1883 12.2963C11.2169 12.2733 11.242 12.2423 11.2608 12.2128L11.2615 12.2116L13.2811 2.02934C13.2512 2.03653 13.2208 2.0451 13.1917 2.05438C13.1586 2.06491 13.1313 2.07498 13.1132 2.08197C13.1043 2.08544 13.0978 2.08805 13.0943 2.08956L13.0931 2.09001ZM7.18113 10.7497L6.36265 10.1222L6.16427 11.3838L7.18113 10.7497ZM5.61171 8.87694L6.42575 8.09115C6.92045 7.61351 7.5824 6.97464 8.25115 6.32936L8.9307 5.67381L4.37509 8.34059L4.39954 8.39826C4.52371 8.69105 4.69109 9.08748 4.8641 9.50136C4.99343 9.81089 5.12871 10.1368 5.2519 10.4385L5.44968 9.18045C5.46878 9.05917 5.52802 8.95422 5.61171 8.87694Z" fill="white"/>
</svg>
