<svg width="15" height="15" viewBox="0 0 15 15" fill="none" xmlns="http://www.w3.org/2000/svg">
<path fill-rule="evenodd" clip-rule="evenodd" d="M1.05874 14.057C1.00212 14.2626 1.18932 14.4523 1.39561 14.3984L4.58455 13.5655C5.59114 14.1107 6.72452 14.4004 7.87836 14.4004H7.88176C11.6789 14.4004 14.7741 11.3231 14.7741 7.54037C14.7741 5.70692 14.0584 3.98253 12.7574 2.68752C11.4563 1.39258 9.72724 0.67688 7.88176 0.67688C4.08468 0.67688 0.989502 3.75421 0.989502 7.53697C0.989045 8.74037 1.30668 9.92266 1.91051 10.9653L1.05874 14.057ZM2.91142 11.241C2.98537 10.9726 2.94843 10.6858 2.80889 10.4449C2.29661 9.56036 2.02735 8.5573 2.02768 7.53697C2.02768 4.33253 4.6532 1.71512 7.88176 1.71512C9.45282 1.71512 10.9185 2.32215 12.025 3.42336C13.1301 4.52339 13.7359 5.98297 13.7359 7.54037C13.7359 10.7447 11.1105 13.3621 7.88176 13.3621H7.87836C6.89792 13.3621 5.93448 13.116 5.07905 12.6526C4.84752 12.5272 4.57696 12.4944 4.32216 12.561L2.41018 13.0603L2.91142 11.241Z" fill="white"/>
<path d="M5.69739 4.25523C5.82404 4.25863 5.96442 4.2655 6.09801 4.56195C6.18654 4.75935 6.33574 5.12275 6.45729 5.41875C6.55191 5.6491 6.62971 5.83859 6.6492 5.87742C6.69372 5.96602 6.72112 6.06822 6.66293 6.18748C6.65606 6.20153 6.64959 6.215 6.64331 6.22795C6.59663 6.32485 6.56341 6.39383 6.48489 6.484C6.45259 6.52107 6.41898 6.56167 6.38544 6.60215C6.32652 6.67342 6.268 6.74416 6.21779 6.79412C6.1288 6.88265 6.03628 6.97817 6.139 7.15537C6.24179 7.33256 6.60127 7.91527 7.132 8.38558C7.70254 8.89355 8.19868 9.10762 8.4495 9.21583C8.49814 9.23682 8.53764 9.25382 8.56654 9.26827C8.74464 9.35687 8.85076 9.3432 8.95348 9.22394C9.05627 9.10461 9.39856 8.7059 9.51847 8.5287C9.63486 8.35151 9.75471 8.37878 9.91908 8.44011C10.0834 8.50144 10.9599 8.93082 11.1379 9.01941C11.1731 9.03694 11.206 9.05276 11.2365 9.06734C11.3604 9.12678 11.4446 9.16712 11.4803 9.22734C11.5248 9.30227 11.5248 9.65672 11.3776 10.0725C11.227 10.4882 10.5011 10.887 10.1724 10.9177C10.1413 10.9205 10.1103 10.9243 10.0784 10.9282C9.7772 10.9646 9.39483 11.0108 8.03247 10.4746C6.35372 9.81449 5.24559 8.17661 5.02158 7.84543C5.00386 7.81928 4.9917 7.8013 4.98516 7.7926L4.98137 7.7875C4.8795 7.65111 4.25586 6.81674 4.25586 5.95582C4.25586 5.13217 4.66164 4.70331 4.84667 4.50775C4.85844 4.49532 4.8693 4.48388 4.87904 4.47329C5.04342 4.29616 5.23519 4.25183 5.35497 4.25183C5.47489 4.25183 5.59468 4.25183 5.69739 4.25523Z" fill="white"/>
</svg>
