<svg width="29" height="29" viewBox="0 0 29 29" fill="none" xmlns="http://www.w3.org/2000/svg">
<g clip-path="url(#clip0_99_11024)">
<path d="M9.49967 18.0721L6.92944 20.6448L10.358 24.0735L24.0736 10.3564L20.645 6.92892L18.0711 9.49922L19.7866 11.2136L18.0711 12.9303L16.3568 11.2148L14.6425 12.9303L16.3568 14.6446L14.6425 16.359L12.9283 14.6446L11.2128 16.359L12.9283 18.0733L11.2128 19.7889L9.49967 18.0709V18.0721ZM21.5021 4.35619L26.645 9.49922C26.8723 9.72657 27 10.0349 27 10.3564C27 10.6779 26.8723 10.9862 26.645 11.2136L11.214 26.645C10.9866 26.8723 10.6783 27 10.3568 27C10.0353 27 9.72703 26.8723 9.49967 26.645L4.35679 21.502C4.12951 21.2747 4.00182 20.9663 4.00182 20.6448C4.00182 20.3234 4.12951 20.0151 4.35679 19.7876L19.7878 4.35619C20.0152 4.1289 20.3236 4.00121 20.645 4.00121C20.9665 4.00121 21.2748 4.1289 21.5021 4.35619ZM18.0711 23.2151L19.7866 21.5008L22.5048 24.2202H24.2191V22.5059L21.5009 19.7864L23.2152 18.0721L26.4122 21.268V26.4122H21.2694L18.0723 23.2151H18.0711ZM7.78538 12.9279L4.35558 9.49922C4.24285 9.38661 4.15343 9.25291 4.09242 9.10572C4.03141 8.95854 4 8.80077 4 8.64144C4 8.48211 4.03141 8.32434 4.09242 8.17716C4.15343 8.02998 4.24285 7.89626 4.35558 7.78367L7.78538 4.35498C8.01273 4.12769 8.32105 4 8.64253 4C8.964 4 9.27232 4.12769 9.49967 4.35498L12.9307 7.78367L11.214 9.49922L8.64253 6.92649L6.92823 8.64205L9.49967 11.2123L7.78538 12.9279Z" fill="#0C8CE9"/>
</g>
<defs>
<clipPath id="clip0_99_11024">
<rect width="29" height="29" fill="white"/>
</clipPath>
</defs>
</svg>
