<svg width="14" height="11" viewBox="0 0 14 11" fill="none" xmlns="http://www.w3.org/2000/svg">
<path d="M14 4.8125V11H12.6V8.9375H1.4V11H0V0H1.4V6.875H7V2.0625H11.2C11.9426 2.0625 12.6548 2.35221 13.1799 2.86798C13.705 3.38367 14 4.0832 14 4.8125ZM12.6 6.875V4.8125C12.6 4.44785 12.4525 4.09812 12.1899 3.84024C11.9274 3.58236 11.5713 3.4375 11.2 3.4375H8.4V6.875H12.6ZM4.2 4.8125C4.38564 4.8125 4.56372 4.74011 4.69497 4.61113C4.82622 4.48222 4.9 4.30732 4.9 4.125C4.9 3.94268 4.82622 3.76778 4.69497 3.63887C4.56372 3.50996 4.38564 3.4375 4.2 3.4375C4.01436 3.4375 3.83628 3.50996 3.70503 3.63887C3.57371 3.76778 3.5 3.94268 3.5 4.125C3.5 4.30732 3.57371 4.48222 3.70503 4.61113C3.83628 4.74011 4.01436 4.8125 4.2 4.8125ZM4.2 6.1875C3.64301 6.1875 3.10891 5.97018 2.71509 5.5834C2.32127 5.19661 2.1 4.67204 2.1 4.125C2.1 3.57803 2.32127 3.05339 2.71509 2.66661C3.10891 2.27982 3.64301 2.0625 4.2 2.0625C4.75692 2.0625 5.29109 2.27982 5.68491 2.66661C6.07873 3.05339 6.3 3.57803 6.3 4.125C6.3 4.67204 6.07873 5.19661 5.68491 5.5834C5.29109 5.97018 4.75692 6.1875 4.2 6.1875Z" fill="white"/>
</svg>
