<svg width="14" height="15" viewBox="0 0 14 15" fill="none" xmlns="http://www.w3.org/2000/svg">
<path d="M7.57624 3.69556C7.57624 3.38002 7.32049 3.12427 7.00495 3.12427C6.68941 3.12427 6.43359 3.38002 6.43359 3.69556V7.50436C6.43359 7.70132 6.53511 7.88442 6.70214 7.98887L8.98744 9.41712C9.25498 9.58436 9.60745 9.50304 9.77468 9.23542C9.94192 8.96788 9.8606 8.61541 9.59299 8.44818L7.57624 7.18769V3.69556Z" fill="#0C8CE9"/>
<path fill-rule="evenodd" clip-rule="evenodd" d="M6.70214 7.98887C6.53511 7.88442 6.43359 7.70132 6.43359 7.50436V3.69556C6.43359 3.38002 6.68941 3.12427 7.00495 3.12427C7.32049 3.12427 7.57624 3.38002 7.57624 3.69556V7.18769L9.59299 8.44818C9.8606 8.61541 9.94192 8.96788 9.77468 9.23542C9.60745 9.50304 9.25498 9.58436 8.98744 9.41712L6.70214 7.98887ZM9.23955 9.01329L9.23972 9.0134L9.23974 9.01341C9.23968 9.01337 9.23961 9.01333 9.23955 9.01329Z" fill="#0C8CE9"/>
<path fill-rule="evenodd" clip-rule="evenodd" d="M7.00498 0.838989C3.32376 0.838989 0.3396 3.82315 0.3396 7.50437C0.3396 11.1855 3.32376 14.1698 7.00498 14.1698C10.6861 14.1698 13.6704 11.1855 13.6704 7.50437C13.6704 3.82315 10.6861 0.838989 7.00498 0.838989ZM1.48225 7.50437C1.48225 4.45423 3.95484 1.98164 7.00498 1.98164C10.0551 1.98164 12.5277 4.45423 12.5277 7.50437C12.5277 10.5545 10.0551 13.0271 7.00498 13.0271C3.95484 13.0271 1.48225 10.5545 1.48225 7.50437Z" fill="#0C8CE9"/>
<path fill-rule="evenodd" clip-rule="evenodd" d="M0.3396 7.50437C0.3396 3.82315 3.32376 0.838989 7.00498 0.838989C10.6861 0.838989 13.6704 3.82315 13.6704 7.50437C13.6704 11.1855 10.6861 14.1698 7.00498 14.1698C3.32376 14.1698 0.3396 11.1855 0.3396 7.50437ZM7.00498 1.98164C3.95484 1.98164 1.48225 4.45423 1.48225 7.50437C1.48225 10.5545 3.95484 13.0271 7.00498 13.0271C10.0551 13.0271 12.5277 10.5545 12.5277 7.50437C12.5277 4.45423 10.0551 1.98164 7.00498 1.98164Z" fill="#0C8CE9"/>
</svg>
